<?xml version="1.0"?>
<svg xmlns="http://www.w3.org/2000/svg" id="Capa_1" enable-background="new 0 0 512 512" height="512px" viewBox="0 0 512 512" width="512px" class=""><g><g><path d="m257.104 315.83c14.18 0 27.271-8.279 33.352-21.093 1.769-3.726.182-8.18-3.544-9.948-3.726-1.767-8.181-.182-9.948 3.545-3.621 7.63-11.417 12.56-19.859 12.56s-16.238-4.93-19.859-12.56c-1.769-3.727-6.224-5.313-9.948-3.545-3.726 1.768-5.313 6.223-3.544 9.948 6.078 12.813 19.17 21.093 33.35 21.093z" data-original="#000000" class="active-path" data-old_color="#000000" fill="#000000"/><ellipse cx="196.558" cy="247.188" rx="11.815" ry="17.599" data-original="#000000" class="active-path" data-old_color="#000000" fill="#000000"/><ellipse cx="317.65" cy="247.188" rx="11.815" ry="17.599" data-original="#000000" class="active-path" data-old_color="#000000" fill="#000000"/><path d="m478.58 129.442c-2.042-3.585-6.602-4.833-10.186-2.792-3.583 2.042-4.834 6.602-2.792 10.185 20.582 36.13 31.462 77.337 31.462 119.166 0 41.842-10.882 83.053-31.468 119.179-18.431 32.343-44.312 60.153-75.178 80.937-4.609-22.223-11.624-41.782-20.936-58.365 65.64-2.558 93.466-32.377 94.691-33.727 2.675-2.95 2.564-7.481-.252-10.297-17.964-17.964-17.954-61.11-17.938-132.591l.001-6.778c0-49.262-12.199-88.531-36.257-116.716-31.185-36.533-82.538-55.057-152.631-55.057-70.089 0-121.438 18.524-152.622 55.057-24.058 28.185-36.256 67.453-36.256 116.715l.001 6.58c.007 31.115.012 55.692-1.329 75.991-.272 4.116 2.843 7.672 6.959 7.944 4.091.263 7.672-2.844 7.943-6.959 1.374-20.792 1.369-45.587 1.362-76.979l-.001-6.576c0-45.607 10.995-81.614 32.68-107.019 28.217-33.056 75.744-49.818 141.262-49.818 65.523 0 113.053 16.761 141.271 49.818 21.686 25.405 32.682 61.411 32.682 107.018l-.001 6.774c-.017 71.369-.026 113.372 17.15 137.093-10.524 8.088-38.37 24.833-88.211 24.758-3.692-5.014-7.217-9.05-10.31-12.202 25.406-12.476 43.1-37.911 44.633-67.932 1.374-26.857 1.526-54.013.449-80.713-.161-4.004-3.455-7.167-7.462-7.167-46.293 0-77.221-50.484-77.523-50.987-1.08-1.805-2.872-3.07-4.935-3.485-2.058-.415-4.204.06-5.898 1.306-63.41 46.659-169.212 52.997-172.342 53.171-3.868.157-6.999 3.261-7.155 7.164-1.071 26.813-.92 53.968.448 80.712 1.543 30.024 19.242 55.46 44.647 67.934-3.096 3.154-6.621 7.191-10.316 12.206-33.608.06-56.877-7.565-70.617-14.097-8.134-3.866-13.953-7.802-17.634-10.657 4.957-6.889 8.649-15.564 11.212-26.291.958-4.012-1.517-8.04-5.529-8.998-4.018-.958-8.041 1.518-8.998 5.529-2.756 11.54-6.688 19.564-12.376 25.251-2.816 2.816-2.926 7.346-.252 10.297 1.224 1.35 29.041 31.168 94.708 33.727-9.5 16.914-16.609 36.911-21.211 59.673-31.735-20.921-58.317-49.238-77.136-82.274-20.577-36.121-31.453-77.322-31.453-119.15 0-64.394 25.075-124.932 70.606-170.462 45.53-45.528 106.067-70.602 170.458-70.602 38.28 0 74.876 8.704 108.772 25.87 32.336 16.376 61.071 40.314 83.098 69.227 2.498 3.28 7.184 3.914 10.466 1.415 3.281-2.5 3.915-7.185 1.415-10.466-23.386-30.696-53.895-56.112-88.231-73.5-36.008-18.236-74.874-27.482-115.52-27.482-68.381 0-132.668 26.627-181.019 74.977-48.352 48.351-74.981 112.639-74.981 181.023 0 44.415 11.554 88.173 33.412 126.542 21.195 37.205 51.656 68.783 88.086 91.318 17.618 10.91 36.543 19.643 56.246 25.953 25.192 8.087 51.521 12.187 78.256 12.187 47.626 0 94.113-13.174 134.437-38.097 36.454-22.536 66.93-54.118 88.135-91.329 21.869-38.375 33.428-82.144 33.428-126.574 0-44.416-11.557-88.18-33.42-126.558zm-343.772 172.644c-1.232-24.076-1.461-48.492-.682-72.679 10.421-.875 31.762-3.152 57.55-8.574 45.021-9.465 81.895-23.756 109.758-42.523 4.015 5.562 10.648 13.9 19.583 22.269 18.33 17.168 38.611 27.094 59.066 28.991.775 24.039.545 48.401-.689 72.517-1.722 33.712-28.471 60.335-62.221 61.928-39.855 1.883-80.276 1.883-120.143 0-33.741-1.594-60.49-28.218-62.222-61.929zm178.249 77.047c-4.343 18.61-27.777 32.871-55.956 32.871-28.18 0-51.613-14.262-55.957-32.871 18.584.807 37.267 1.23 55.96 1.23 18.689 0 37.377-.423 55.953-1.23zm-130.752 106.458c-15.683-5.023-30.831-11.693-45.166-19.838 10.284-56.977 33.94-81.582 43.11-89.21 1.817.458 3.658.856 5.523 1.19 1.496 13.036 9.015 25.018 21.578 34.139 13.382 9.717 31.051 15.068 49.751 15.068s36.368-5.351 49.751-15.068c12.562-9.121 20.08-21.103 21.577-34.139 1.869-.334 3.714-.733 5.535-1.192 9.094 7.556 32.495 31.859 42.898 88.074-36.608 21.245-78.246 32.45-120.862 32.45-25.183 0-49.976-3.86-73.695-11.474z" data-original="#000000" class="active-path" data-old_color="#000000" fill="#000000"/></g></g> </svg>
